# xmcd
#
# Track frame offsets: 
#        150
#        12762
#        26250
#        41562
#        57237
#        76168
#        87670
#        98202
#        115334
#        126550
#        137437
#        151723
#        167626
#        179857
#        193732
#        223592
#
# Disc length: 3141 seconds
#
# Revision: 0
# Processed by: cddbd v1.5.2PL0 Copyright (c) Steve Scherf et al.
# Submitted via: ExactAudioCopy v0.99pb4
#
DISCID=d60c4310
DTITLE=Reet Petite and Gone - Lifetime Here
DYEAR=1998
DGENRE=Blues
TTITLE0=Mistreated Blues
TTITLE1=Good Morning
TTITLE2=Time Is Drawing Near
TTITLE3=I'm Gonna Start a Graveyard
TTITLE4=James Alley
TTITLE5=Viola Lee Blues
TTITLE6=The Reefer Song (Viper)
TTITLE7=Mobile Line
TTITLE8=Promised Land
TTITLE9=Too Long
TTITLE10=Old Jim Canan's
TTITLE11=Fumbling With The Blues
TTITLE12=Going to Germany
TTITLE13=Pigmeat
TTITLE14=Devil Got My Woman
TTITLE15=Grow Fins
EXTD=
EXTT0=
EXTT1=
EXTT2=
EXTT3=
EXTT4=
EXTT5=
EXTT6=
EXTT7=
EXTT8=
EXTT9=
EXTT10=
EXTT11=
EXTT12=
EXTT13=
EXTT14=
EXTT15=
PLAYORDER=
